<?xml version="1.0" standalone="no"?>
<!DOCTYPE svg PUBLIC "-//W3C//DTD SVG 20010904//EN"
 "http://www.w3.org/TR/2001/REC-SVG-20010904/DTD/svg10.dtd">
<svg version="1.0" xmlns="http://www.w3.org/2000/svg"
 width="2127.000000pt" height="2127.000000pt" viewBox="0 0 2127.000000 2127.000000"
 preserveAspectRatio="xMidYMid meet">
<metadata>
Created by potrace 1.14, written by Peter Selinger 2001-2017
</metadata>
<g transform="translate(0.000000,2127.000000) scale(0.100000,-0.100000)"
fill="#000000" stroke="none">
<path d="M1303 16306 l-203 -200 0 -2795 0 -2796 201 -199 201 -198 786 0
c433 1 797 1 810 1 15 1 84 62 222 198 l200 197 0 799 0 799 109 -109 c59 -59
456 -452 881 -873 425 -421 828 -821 896 -889 l123 -123 809 0 810 0 201 199
201 199 2 1592 3 1592 625 -619 c344 -340 796 -787 1004 -993 l379 -375 0
-599 0 -599 200 -197 c110 -109 208 -198 216 -199 9 0 373 0 810 0 l794 0 200
199 200 200 0 598 0 598 177 175 c1557 1543 1797 1780 1820 1798 13 10 15
-122 15 -1180 l0 -1192 185 -183 c102 -101 373 -370 602 -598 344 -341 422
-414 445 -415 34 0 3888 0 3959 0 l51 1 214 211 c118 116 390 385 604 599
l390 388 0 596 0 596 -31 33 c-16 17 -107 108 -201 201 l-171 169 -994 -1
c-546 0 -1000 -1 -1008 -1 -14 -1 -15 -27 -15 -191 1 -105 -2 -194 -5 -198 -8
-12 -1600 -9 -1601 3 -1 5 -2 364 -3 796 l-1 786 805 -1 805 -1 0 -195 0 -195
1008 -1 1009 -1 201 198 202 197 0 599 1 598 -201 198 c-110 109 -382 379
-605 600 l-404 402 -2016 0 -2015 1 -360 -357 c-416 -413 -804 -797 -831 -821
-19 -16 -19 -6 -18 380 l1 397 -202 200 -203 200 -805 0 c-443 0 -808 -2 -810
-5 -3 -3 -94 -92 -201 -199 l-196 -193 -1 -47 c0 -25 -1 -205 -1 -399 l0 -352
-366 -363 c-200 -199 -381 -379 -402 -400 l-36 -37 -403 398 -403 398 0 399 0
399 -201 200 -202 200 -807 1 -808 0 -197 -197 c-109 -109 -201 -197 -205
-195 -4 1 -96 90 -204 197 l-198 195 -805 0 -806 0 -202 -199 -203 -200 0
-793 c0 -436 -2 -793 -4 -793 -2 0 -83 78 -179 173 -253 249 -1688 1670 -1765
1747 l-64 65 -807 0 -806 0 -202 -199z"/>
<path d="M19757 16502 c-35 -3 -38 -6 -35 -30 3 -25 6 -27 50 -27 25 0 50 -3
53 -7 4 -4 8 -68 8 -143 l0 -135 33 0 c25 0 34 4 35 18 0 9 0 67 0 127 0 61 2
117 5 125 3 12 17 16 56 15 50 0 52 1 53 28 2 30 14 28 -135 30 -47 1 -102 1
-123 -1z"/>
<path d="M20080 16502 c-6 -2 -10 -69 -10 -173 l0 -170 33 3 32 3 0 118 c-1
64 2 117 5 117 4 0 24 -53 47 -117 38 -113 41 -118 68 -118 15 0 31 7 36 15
11 20 71 188 73 206 1 7 5 16 9 20 4 4 6 -40 6 -97 -2 -157 -3 -149 31 -149
17 0 31 3 31 8 1 4 2 80 3 170 l2 162 -31 1 c-33 1 -68 -1 -73 -6 -5 -4 -53
-137 -64 -175 -16 -57 -23 -54 -47 17 -13 38 -29 82 -36 98 -7 17 -15 39 -19
50 -4 16 -14 20 -46 20 -22 0 -44 -1 -50 -3z"/>
<path d="M1127 8872 c-16 -3 -17 -64 -17 -825 l0 -822 418 1 c435 1 459 2 582
35 265 70 457 279 507 548 2 14 6 27 8 30 2 4 7 38 11 76 56 539 -212 908
-690 951 -73 7 -789 12 -819 6z m710 -376 c251 -24 379 -192 368 -481 -7 -173
-56 -284 -152 -345 -89 -57 -165 -72 -373 -74 l-135 -2 0 453 0 452 45 3 c59
4 170 1 247 -6z"/>
<path d="M17036 8867 c-86 -8 -176 -40 -224 -78 -63 -50 -104 -157 -116 -304
-3 -33 -5 -60 -6 -61 0 -1 -41 -1 -90 0 -50 1 -91 -1 -91 -4 -3 -12 -5 -236
-2 -245 2 -6 40 -9 93 -8 50 1 91 -2 91 -5 1 -4 2 -216 3 -472 l1 -465 200 0
200 0 1 465 c1 256 2 468 3 472 0 4 45 7 99 6 53 0 106 0 117 1 19 1 20 7 18
122 0 66 -4 123 -7 126 -3 4 -57 7 -118 7 l-113 1 1 51 c3 97 30 116 166 116
l87 0 -2 136 -2 136 -30 3 c-92 7 -210 7 -279 0z"/>
<path d="M8033 8783 c-4 -2 -7 -83 -6 -182 l2 -178 -95 -1 c-53 0 -97 -2 -100
-4 -4 -5 -7 -89 -5 -183 l1 -70 97 0 98 0 1 -318 c1 -194 7 -342 14 -380 24
-127 81 -195 196 -232 49 -16 88 -19 230 -19 94 1 179 4 188 7 14 6 16 26 16
149 l0 143 -77 -2 c-86 -2 -135 13 -154 49 -10 17 -13 98 -14 311 0 250 1 288
15 292 8 2 62 3 120 3 l105 -2 3 130 3 129 -118 -3 c-68 -1 -119 2 -123 8 -3
5 -5 86 -5 180 0 93 -2 171 -5 171 -11 3 -380 4 -387 2z"/>
<path d="M13800 8603 l0 -183 -96 2 c-57 0 -99 -3 -103 -10 -10 -17 -5 -234 7
-241 6 -3 51 -5 101 -4 l91 2 0 -317 c1 -396 4 -428 59 -514 62 -98 171 -129
425 -122 76 2 144 8 150 13 9 7 13 196 7 277 -1 6 -26 9 -69 7 -87 -5 -142 13
-161 51 -10 22 -13 88 -13 290 0 143 1 273 1 288 l1 26 115 0 c63 -1 118 2
122 5 3 4 6 61 7 127 l1 120 -50 1 c-27 0 -83 1 -124 2 l-74 2 0 178 c0 97 -2
178 -6 178 -3 1 -93 2 -198 3 l-193 1 0 -182z"/>
<path d="M3275 8445 c-118 -25 -202 -63 -288 -131 -183 -143 -263 -371 -221
-623 42 -248 207 -420 457 -480 105 -25 315 -23 402 3 174 53 289 141 352 269
56 113 70 103 -138 104 l-182 1 -52 -53 c-45 -46 -59 -55 -115 -67 -162 -36
-300 44 -326 189 -4 21 -8 45 -9 54 -3 15 34 16 403 17 224 0 425 1 446 1 l39
1 -6 93 c-11 152 -29 224 -80 322 -40 76 -49 88 -119 155 -63 62 -151 110
-248 135 -82 22 -237 26 -315 10z m232 -278 c52 -27 110 -102 122 -158 6 -28
11 -53 11 -57 0 -10 -470 -6 -480 4 -13 13 34 121 67 156 29 30 68 55 113 69
37 12 131 4 167 -14z"/>
<path d="M4800 8446 c-73 -20 -122 -47 -177 -101 -58 -56 -57 -56 -53 33 2 49
30 43 -218 44 -84 0 -156 -2 -159 -6 -4 -4 -8 -1479 -4 -1578 1 -16 18 -17
198 -15 l198 2 0 258 c0 141 2 257 6 257 3 0 16 -11 29 -25 33 -35 116 -88
165 -105 56 -19 209 -22 274 -5 203 53 349 237 378 475 31 256 -35 498 -175
637 -61 60 -162 116 -232 128 -77 13 -183 13 -230 1z m94 -306 c38 -12 101
-75 118 -118 62 -155 37 -367 -55 -465 -49 -53 -98 -70 -177 -62 -91 9 -151
61 -185 160 -27 78 -25 273 3 343 53 128 170 184 296 142z"/>
<path d="M6010 8448 c-133 -18 -254 -72 -322 -142 -54 -55 -98 -158 -98 -227
l0 -26 185 0 184 0 12 34 c32 97 167 142 289 95 83 -32 113 -124 58 -178 -23
-22 -107 -44 -220 -58 -27 -3 -69 -9 -95 -12 -84 -10 -216 -44 -271 -70 -156
-74 -224 -226 -182 -408 29 -129 129 -221 278 -255 64 -14 203 -11 275 5 77
18 157 54 207 94 l38 30 6 -38 c13 -73 -4 -67 216 -67 110 0 200 0 200 1 0 1
-6 19 -14 40 -24 70 -29 144 -31 519 -2 348 -3 373 -23 423 -50 128 -155 204
-322 233 -76 14 -291 18 -370 7z m334 -720 c-15 -218 -76 -291 -239 -291 -79
0 -128 23 -153 74 -35 70 -3 149 73 184 41 19 121 39 201 50 16 3 48 11 70 18
44 16 51 11 48 -35z"/>
<path d="M9459 8445 c-73 -20 -147 -65 -200 -123 l-49 -54 -1 34 c0 18 0 52 1
76 1 40 0 42 -27 43 -41 0 -303 1 -336 0 l-27 -1 2 -597 3 -598 193 0 c107 0
196 3 198 6 2 3 4 157 4 340 1 347 6 404 41 475 25 53 83 84 153 84 63 0 101
-24 129 -80 21 -44 22 -55 24 -410 1 -201 2 -376 2 -390 l1 -26 193 2 c105 1
195 2 198 3 4 0 7 160 7 354 1 193 3 368 7 387 10 59 47 121 85 141 21 11 55
19 85 19 70 0 114 -26 145 -85 l25 -49 1 -380 c1 -210 2 -383 3 -386 0 -3 90
-5 199 -5 l197 0 -1 425 c-1 356 -4 436 -18 493 -50 210 -168 306 -384 313
-150 4 -247 -32 -344 -127 l-56 -56 -31 43 c-38 55 -100 100 -165 120 -66 20
-199 25 -257 9z"/>
<path d="M11390 8445 c-194 -39 -346 -147 -441 -312 -53 -94 -77 -189 -77
-313 0 -304 163 -528 438 -602 112 -30 318 -32 425 -4 168 44 303 147 364 278
17 37 31 73 31 81 0 11 -35 14 -185 14 l-185 0 -19 -32 c-49 -84 -210 -122
-319 -75 -31 13 -67 39 -87 62 -34 40 -65 117 -65 161 l0 24 418 1 c229 0 429
1 443 1 26 1 26 2 24 74 -9 238 -82 400 -245 538 -107 91 -347 139 -520 104z
m201 -266 c74 -25 129 -85 150 -164 5 -22 12 -47 14 -55 4 -13 -26 -15 -235
-14 -132 1 -243 4 -247 7 -13 14 40 125 79 165 60 62 159 87 239 61z"/>
<path d="M12968 8445 c-105 -26 -201 -86 -255 -159 l-23 -30 0 85 0 84 -167
-2 c-93 -1 -179 -2 -193 -2 l-25 -1 1 -592 c1 -326 2 -595 3 -598 2 -8 378 -6
387 2 4 4 7 162 7 350 0 371 4 409 54 474 75 99 263 100 323 2 29 -47 33 -111
34 -488 l1 -345 198 0 198 0 -4 455 c-2 250 -7 469 -11 485 -33 134 -125 232
-254 271 -68 21 -206 25 -274 9z"/>
<path d="M15720 8449 c-121 -17 -252 -84 -340 -172 -67 -67 -111 -138 -147
-237 -25 -68 -27 -88 -27 -215 -1 -155 8 -196 70 -315 46 -88 110 -159 191
-213 124 -81 209 -103 393 -101 96 1 128 5 193 28 292 99 457 375 415 693 -35
256 -205 451 -454 518 -69 19 -215 26 -294 14z m200 -311 c70 -30 127 -109
145 -203 22 -113 4 -255 -41 -332 -100 -172 -350 -134 -404 62 -35 128 -27
271 21 365 54 107 172 152 279 108z"/>
<path d="M7602 8434 c-33 -7 -77 -21 -99 -32 -52 -27 -122 -98 -144 -147 l-19
-40 -1 40 c0 22 -2 69 -2 104 l-2 63 -180 0 c-99 -1 -186 -1 -192 -1 -10 -1
-13 -127 -13 -599 l0 -597 193 1 c105 1 195 2 199 3 4 0 6 139 6 309 0 169 3
322 6 341 16 81 77 158 156 194 49 22 169 29 246 14 l42 -8 0 180 c-1 177 -1
181 -22 182 -84 5 -123 3 -174 -7z"/>
<path d="M1110 5515 l0 -825 675 0 675 0 1 28 c0 15 1 98 2 185 2 151 1 157
-18 158 -11 0 -217 0 -457 1 -323 0 -438 3 -439 11 -1 7 -2 76 -3 154 l-1 143
25 1 c14 0 196 1 405 2 l380 2 0 165 0 165 -391 1 c-215 0 -398 3 -406 6 -11
5 -14 32 -13 136 0 72 4 134 8 138 4 4 204 8 445 8 l437 1 1 173 2 172 -664 0
-664 0 0 -825z"/>
<path d="M3440 6050 l0 -291 -32 37 c-72 81 -179 125 -308 125 -116 0 -168
-12 -257 -63 -119 -67 -225 -235 -250 -397 -9 -61 -9 -232 0 -300 10 -72 52
-194 88 -258 85 -148 243 -242 416 -245 154 -2 250 38 336 140 l27 34 0 -71 0
-71 190 0 190 0 0 825 0 825 -200 0 -200 0 0 -290z m-135 -445 c91 -37 145
-150 147 -302 1 -48 -2 -101 -6 -118 -3 -16 -8 -41 -11 -53 -6 -36 -51 -108
-81 -131 -60 -47 -186 -53 -248 -11 -77 53 -117 149 -122 290 -5 172 45 280
151 326 40 18 128 17 170 -1z"/>
<path d="M9030 6190 l0 -150 30 -1 c17 0 91 0 165 0 74 0 150 0 169 0 l35 1
-1 150 0 150 -199 0 -199 0 0 -150z"/>
<path d="M8233 6247 c-3 -5 -5 -87 -5 -183 l1 -174 -100 0 c-59 0 -99 -4 -100
-10 0 -5 -1 -48 -1 -95 0 -47 1 -100 1 -119 l1 -34 83 0 c45 0 90 -1 99 -1 15
-1 16 -28 16 -303 0 -167 3 -329 6 -361 15 -147 78 -231 199 -265 53 -15 284
-24 385 -15 l52 5 0 144 0 144 -90 0 c-85 0 -91 2 -122 29 l-32 29 -1 296 0
296 25 1 c14 1 69 1 123 1 l97 0 0 129 0 129 -123 0 -122 0 0 180 0 180 -30 1
c-153 5 -358 2 -362 -4z"/>
<path d="M5968 5919 c-243 -26 -434 -184 -513 -423 -39 -119 -39 -317 0 -431
73 -214 243 -356 480 -400 38 -7 212 -7 245 0 14 3 35 7 48 10 146 27 310 147
376 274 26 51 71 200 62 209 -4 3 -298 5 -367 3 -10 -1 -22 -20 -32 -53 -33
-102 -92 -142 -208 -143 -66 0 -81 4 -117 27 -82 55 -125 171 -117 323 11 211
90 305 252 302 95 -3 148 -37 178 -115 l20 -52 191 0 191 0 -8 43 c-20 117
-58 188 -142 270 -124 120 -327 179 -539 156z"/>
<path d="M7328 5925 c-2 -1 -32 -5 -68 -9 -96 -9 -128 -15 -197 -42 -151 -56
-244 -166 -259 -306 l-6 -53 144 2 c78 1 162 2 184 2 39 1 43 4 57 39 19 48
52 78 105 96 54 19 149 13 201 -13 42 -22 74 -75 67 -113 -3 -12 -5 -26 -5
-29 -1 -3 -10 -15 -21 -27 -25 -27 -83 -42 -215 -58 -325 -37 -471 -103 -537
-241 -19 -40 -22 -65 -23 -153 0 -95 3 -110 28 -161 64 -132 189 -200 369
-201 154 0 291 41 374 114 26 23 34 26 35 14 1 -9 2 -19 3 -23 1 -5 6 -23 10
-40 l8 -33 199 0 c109 0 199 2 199 4 0 2 -7 23 -15 46 -24 67 -26 110 -29 510
-2 358 -3 377 -24 431 -49 123 -151 194 -332 228 -49 10 -245 22 -252 16z
m223 -707 c7 -163 -41 -269 -136 -301 -56 -20 -159 -16 -202 6 -85 45 -84 174
1 226 19 12 94 35 167 52 73 16 135 32 138 34 12 13 31 3 32 -17z"/>
<path d="M10198 5925 c-2 -1 -31 -5 -64 -8 -199 -19 -384 -147 -473 -328 -54
-109 -70 -187 -66 -319 3 -117 6 -136 37 -218 70 -188 234 -331 433 -377 79
-19 255 -22 298 -6 15 6 27 9 27 6 0 -7 102 31 150 55 206 104 329 322 324
570 -6 324 -209 562 -524 615 -32 6 -139 13 -142 10z m113 -320 c102 -45 151
-147 153 -315 2 -196 -76 -315 -214 -327 -156 -14 -245 89 -257 298 -10 165
45 296 141 340 50 22 131 24 177 4z"/>
<path d="M11745 5922 c-116 -12 -245 -80 -307 -160 l-28 -35 0 82 0 81 -192
-2 -193 -3 -1 -597 -2 -598 199 0 c109 0 199 3 200 8 0 4 1 169 2 367 2 341 3
362 23 405 30 65 75 106 131 119 100 24 192 -7 227 -75 20 -37 21 -57 24 -431
l3 -393 200 0 199 0 -1 438 c0 398 -2 444 -20 512 -32 125 -104 209 -217 253
-23 9 -45 17 -50 17 -4 0 -20 2 -37 5 -47 7 -127 11 -160 7z"/>
<path d="M4059 5863 c-4 -122 0 -782 5 -827 15 -120 65 -232 130 -289 27 -23
109 -64 144 -71 66 -15 81 -16 152 -17 141 0 237 38 332 133 l56 56 0 -56 c0
-31 0 -67 1 -79 l1 -23 190 0 c174 0 190 1 191 18 0 23 0 1142 0 1165 -1 16
-17 17 -199 17 l-197 0 0 -337 c1 -219 -3 -356 -10 -389 -25 -113 -92 -173
-200 -179 -85 -5 -140 22 -174 85 l-25 45 -1 385 0 385 -198 3 -197 2 -1 -27z"/>
<path d="M9030 5290 l0 -600 199 0 200 0 0 600 0 600 -200 0 -199 0 0 -600z"/>
</g>
</svg>
